/* XPM */
static char *_96246d6076c47a6db0fd5ebf492234bNDEKfFyGN4IkH5Hl[] = {
/* columns rows colors chars-per-pixel */
"64 64 5 1 ",
"  c black",
". c #090707",
"X c #151F1F",
"o c #202F2B",
"O c #37514A",
/* pixels */
"..    XXXXXXXXXXXXXX..    ..................      ..............",
"..    XXXXXXXXXXXXXX..     ................       ..............",
"..    XXXXXXXXXXXXXX..XX                      OOOO...X          ",
"..  OOOXXXXXXXXXXXOO..XXXX                  XOOOOO..XX          ",
"..OOOOOOOOOOOOOOOOOO..XXXXXXXXXXXXXXXXXXXXXXXOOOOO..XXXX       X",
"..OOOOOOOOOOOOOOOOOO..OOXXXXXXXXXXXXXXXXXXXXOOOOOO..XXXXXX   XXX",
"..oOOOOOOOOoOOOOoo....OOOOOOXXXXXXXXOOOOOOOOOOOOOO..OOXXXXXXXXXO",
"..oooOOOOOooOOOooo...OOOOOOOOOXXXXOOOOOOOOOOOOOOoo..OOOOXXXXXXOO",
"..ooooooooooooooo...OOOOOOOOOOOOOOOOOOOOOOOOOOoooo..OOOOOOOOoo..",
"..oooooooooooooo..OOOOOOOOOOOOOOOOOOOOOOOOOOooooo..OOOOOOOOoo...",
"..oooooooooo.....OOOOOOOOOOOOOOOOOooOOOOOOooooooo..OOOOoooooo.. ",
"...ooooooo.......OOOOOOOOOOOOOOOoooooOOOoooooooo..OOOoooooo...  ",
" .......... ... OOOOOOOOoooooooooooooo...........OOOOoooooo...  ",
"   .......  ..  OOooOOOoooooooooooooo...........OOOoooooo....   ",
"             . ...ooooooooooooooooooo...ooooooooOOooooo....    X",
"               ....oooooooooooooooo.....ooooooooOOooo.....   XXX",
"XXXXXXXXXXXXXXXXX....oooooooooo......  ..oooooooooo... ...  XXXo",
"XXXXXXXXXXXXXXXXXXX....oooooo......      ..oooooo....   ..  XXoo",
"OOOOOOOOOOOOOXXXXXX............          ..........    X..OOOOOO",
"OOOOOOOOOOOOOOOXXXXX.........             ........   XXX..OOOOOO",
"OOOOOOOOOOOOOOOXXXXX...          XXXXXXXXXXXXXXXXXXXXXXO..OOOOOO",
"OOOOOOOOOOOOOOOOOXXX..         XXXXXXXXXXXXXXXXXXXXXXOOO..OOOOOO",
"oooooooOOOOOOoOOOOOO..XXXXXXXXXXXOOOOOOXXXXXXXXXXXXOOOO...OOoOOO",
"oooooooooOOOoooOOOOO..XXXXXXXXXOOOOOOOOOOXXXXXXXXOOOOOO...OoooOO",
"oooooooooooooooOOOOo..OOOOOOOOOOOOOOOOOOOOOOOOOOOOOOO.....oooooo",
"ooooooooooooooooOOo....OOOOOOOOOOOOOOOOOOOOOOOOOOOO.......oooooo",
"ooooooooooooooooooo.  .OOOOOOOOOOOOOOOOOOOOOOOooOO...   ...ooooo",
"ooooooooooooooooo..   ..OOOOOOOOOOOOOOOOOOOOOoooO..       ..oooo",
"ooooooooooooooooo..   ..OOooOOOOOOOOOOOOOOOOOooo..         .....",
"ooooooooooooooo..      ..OoooOOOOOOOOOOOOOOooooo.           ....",
".................      ...oooOOOooOOOOooOOOooooo     XXXXX      ",
"...............          ..oooOOoooOOoooOOoooooo   XXXXXXXXX    ",
"    ...            XX    ....oooooooooooooooo...  XXXXOOoXXXXXXX",
"    ...          XXXXXX    ....oooooooooooo....  XXXXOOOOXXXXXXX",
"XX...XXXXXXXXXXXXXXXOOX      ....oooooooooo..    XXXOOOOOOOXXXXX",
"XX...XXXXXXXXXXXXXXOOOOXX      ....oooooo...   XXXOOOOOOOOOOOXXX",
"oo..OOOOOOOOOOOOOOOOOOOXXXX       ...oooo...XXXXXOOOOOOOOOOOOooo",
"oo..OOOOOOOOOOOOOOOOOOOOOXXXX      ...oo....XXXOOOOOOOOOOOOOOooo",
"oo..OOOOOOooOOooOOOOOOOOOOOXX   ...  ...  ..XXXOOOOOOoooOOOOoooo",
"oo..OOOOOooooOoooOOOOOOOOOOOOX ...    ..   ..XOOOOOOoooooOoooooo",
"oo...OOooooooooooooOOOooOOOOOO...          ...oOOOoooooooooooooo",
"oo....OoooooooooooooOOoooOOOO...             ..oOOoooooooooooooo",
"oo.....ooooooooooooooooooooo...              ...XXoooooooooooooo",
"o......oooooooooooooooooooo..                  ..Xoooooooooooooo",
"...   ..ooooooooooooooooooo..      XXXXXXXX    .................",
".      ...ooooooooooooooo..      XXXXXXXXXXXX    ...............",
"        .........oooooooo..      XXXXXXOOXXXX        ...        ",
"          .........oooo..       XXXXXOOOOOOXXX       ...        ",
"XXXXXXXX      ..  ......       oOOOOOOOOOOOOOOOOOOo  ..XXXXXXXXX",
"XXXXXXXXX     ..   ....       oooOOOOOOOOOOOOOOOOoo ...XXXXXXXXX",
"OOOOOOOOXX    ..XX     .......ooooOOOoooOOooOOOOooo...XXXXOOOOOO",
"OOOOOOOOXX   ...XXXX     .....ooooooooooooooooooooo..XXXXXOOOOOO",
"OOOOOOOooooo...OOOXXXXXX        ..oooooooooooooooo..XXXXXOOOOOOO",
"OOOOOoooooo...OOOOOOXXXXXX       ...ooooooooooooo..XXXXXXOOOOOOO",
"ooooooooooo....OOOOOOOXXXXXXXX    .........ooooo..XXXXXXOOOoooOO",
"ooooooooo....O..OOOOOOOOXXXXXXXX    ........oo....XXXXXOOOOooooO",
"oooXXXoo...OOO...OOOOOOOOOOOXXXXXX            ....XXXXOOOOoooooo",
"oXXXXXo...OOOO....OOOOOOOOOOOOXXXXXX            ...XOOOOOooooooo",
"XXXXXX...oooOOoo....OOOOOOOOOOOOXXXXXXXXXXXX     ...OOOOoooooooo",
"XXXXX...ooooOOoo......OOOOOOOOOOOOXXXXXXXXXXXX    ..OOoooooooooo",
"XXXXX..             ...XXXOOOOOOOOOOOOOOOOXXXXXXX...XXooooooooXX",
"XXX..               ....XXXXOOOOOOOOOOOOOXXXXXXX....XXXooooooXXX",
".....               ......XXXXXXXXXXXXXXXXXX........XXXXXoooXXXX",
"....                ......XXXXXXXXXXXXXXXXXX........XXXXXXooXXXX"
};
