/* XPM */
static char *b3a812da6e7448bb9201f3fd594d4479bd5DBbQMEn3srD9K[] = {
/* columns rows colors chars-per-pixel */
"64 64 9 1 ",
"  c #671500",
". c #691600",
"X c #6E1400",
"o c #621800",
"O c #741C00",
"+ c #980F00",
"@ c #F22F00",
"# c #FA9A00",
"$ c #FDC846",
/* pixels */
"OOOOoo@@$$##@@@@  ++++++OOOOOOOOoo@@##$$##@@##@@##  ++++++++++OO",
"OOOOoo@@$$$#@@@@  +++++++OOOOOOOo@@##$$$#@@@##@@##  ++++++++++OO",
"++ooo@@#$$$$@@@  ++++++++OOOOOooo@@##$$$@@@#######      ++++++++",
"++oo@@##$$$$$@  ++++++++++OOOooo@@##$$$$@@########@@      ++++++",
"  @@@##@$$$$$@@   ++++++++  @@@@@##$$$$$###########@@@@@        ",
"  @@##@@$$$$$$@@    ++++    @@@@##$$$$$###++@@##$$##@@@@@       ",
"@@@#####$$$#$$$$##        ########$$$$$##+++@@@@$$$#########@@@@",
"@@######$$##$$$$#@#@     #@#######$$$$##++++O@@@$$$#########@@@@",
"@@@@@@$#####++++##@@####@@##@@@#####@@++++++OO@@$$$$###@#####@@@",
"@@@@@@$$###@+++++#@######@#@@@@@@##@@+++++++OO@@$$$$#@@@@####@@@",
"@@@+@@$$$$@@X+++++OOOOOO++@@@@@###@@@+++++++OO@@$$$$@@@@@@++++@@",
"@@++@@$$$$$@@X+++++OOOOOO+XX@@###@@@++++++++OO@@##$$@@@@@+++++@@",
"++++@@##@$$$@XX++++OOOOOOOOO..##@@@@++++++++OO@@@###@@@@@+++++++",
"++++@@##@@$$$@XX++++OOOOOOOO..##@@OO++++++++OO@@@###@@@+++++++++",
"++++@@##+@@$$$@XX++++OOOOOOO..##OOOO++++++++OOO@@@####++++++++++",
"++++@@##+++@$$@@XX+++++OOOOO..##OOOO+++++++++OOOO@$$##++++++++++",
"++++@@OOO+++$$@@..+++++OOOOO..##OOOO+++++++++OOOOO$$$$++++++++++",
"++++@@OOO+++$$$@@..+++++OOO...#OOOOO+++++++++++OOO$$$$++++++++++",
"+++@@@OOOO++#$$@@..+++++.....@OOOOOO++++++++++++@@$$$$++++++O+++",
"+++@@@OOOO++##$$$@@.++++....@@OOOOOOO+++++++++++@$$$$$+++++OOO++",
"++@@@OOOOOO+@@$$$$@@XXXX@@$$@@XOOOOOO++++++++++X$$$$$@OOOOOOOO++",
"++@@@OOOOOO+@@$$$$$@@XX@@$$$$@XXOOOOOOO++++++XXX$$$@@@OOOOOOOO++",
"++@@OOOOOOOOO@++@$$$@@@@@$$$$$XX+OOOOOO++++++XX#$$@@@+OOOOOOOO++",
"++@@OOOOOOOOO@+++@$$@@@$$$$$$$XX+++OOOOOO+++XX##$@@+++OOOOOOOO++",
"@@@@OOOOOOOOOO+++@@@##$$$$$$$@XX+++OOOOOOOOOXX@@@@+++++OOOOOOO++",
"@@@@OOOOOOOOOOO++++@##$$$$$@@@XX+++++OOOOOOOXX@@@@++++++OOOOOO++",
"@@@@@OOOOOOOOOO++++@@@$$$@@@@@XX+++++OOOOOOO..@@##++++++++OOO@@@",
"@@@@@OOOOOOOOOOOO+++@@$$@@@@@@X+++++++OOOOOO..@@##@@+++++++OO@@@",
"@@@#@@OOOOOOOOOOO+++XX##@@@@..++++++++OOOOOO..@@$$@@@++++++@@@@@",
"@@##@@OOOOOOOOOOOOO+XX#@#@@@..+++++++++OOOO..@@@$$$@@@+++++@@@@@",
"####@@XOOOOOOOOOOOOOXX@###@@@@X++++++++OOOO..@@@$$$##@@+++@@#@@@",
"####@@XXOOOOOOOOOOOOXX@@##@@@@@XX+++++++OO.@@@@@$$$##@@+++@@##@@",
"$$$$@@XXOOOOOOOOOOOOXX@@$$$$@@@XX+++++++XX@@@@##$$##@@@@@@@@$$$$",
"$$$$@@XXOOOOOOOOOOOOOXX@@$$$@@@@XXX++++XX@@@@@##$$@@@@@@@@@@$$$$",
"$$$$@@XX++OOOOOOOOOOOXX@@@@@##@@#XX++++XX@@@@@@@$$@@@+++@@@@#$$$",
"$$$$@@XX+++OOOOOOOOOOOXXX@@@##@@##XX++X@@@@@@@@@$$@@@+++@@@@@$$$",
"$$$$@@XX++++OOOOOOOOOO+XX@@@$$$$$$@XXXX@@@@OOO..$$@@+++++@@@@@@@",
"$$$$@@XX++++++OOOOOOOOO+XX@@$$$$$$@@XX@@@@OOO...$$++++++++@@@@@@",
"####@@XX+++++++OOOOOOOOOXX@@#$$$$$@@@@@@@+++....$$+++++++++@@@@@",
"####@@XX+++++++++OOOOOOOXXX@@#$$$@@@@@@@++++....$$+++++++++@@@@@",
"@@##@@XX+++++++++OOOOOOO+XX@@@$$$@##@@@X++++XX@@$$O+++++++++O@@@",
"@@@#@@XX+++++++++++OOOOOO+XX@@$$@###@@XXX++XXX@@$$O+++++++++OOO@",
"@@@@@@@oo++++++++++OOOOOOO..@@$$###@@@XXXXXXXX@@##@@+++++++++OOO",
"@@@@@@@oo++++++++++++OOOO...@$$###@@@@XXXXXXXX@###@@+++++++++++O",
"@@###@@@oo+++++++++++OOOO..#$$$##@@@@############@OOO+++++++++++",
"@####@@@@ooo++++++++++OO.##$$$#@@@@@############@OOOOO++++++++++",
"###$$#@@@@oooo   +++++XX##$$$##@@++++++###@@@@@@OOOOOOO+++++++++",
"##$$$##@@@oooo     +++XX#$$$#@@@++++++++##@@@@@@OOOOOOOO++++++++",
"@@$$$$##@@##$$@@@     @@$$$$@@@O++++++++ ##@@@@@@@++OOOOO+++++++",
"@@$$$$$##@##$$@@@@    @@@$$@@OOOO++++++++  ##@@@@@+++OOOOO++++++",
"@@@#$$$$###$$$##########@@@@@OOOOO++++++++ ####@@@O+++OOOOO+++++",
"@@@@$$$$$#$$$###########@@@@OOOOOOO++++++   ####@@OO+++OOOOOO+++",
"@@@@@$$$$$$$$##@@@@@@@++++++++OOOOOO++++  @@@@##@@OOO+++OOOOOOOO",
"@@@@@@$$$$$$##@@@@@@@@++++++++OOOOOOOO++@@@@@###@@OOOO+++OOOOOOO",
"oo@@@@@#$$$@++++++OOOO+++++++++OOOOOOOoo@@@@####  +OOOO+++OOOOOO",
"oo@@@@@@$@@+++++++OOOO++++++++++OOOOOOoo@@@@####   +OOOO+++OOOOO",
"ooo@$$$@@@@+++++++OOOOO+++++++++++++OOoo#@@@##@@@   OOOOO+++OOOO",
"oooo$$$$@@+++++++OOOOOO+++++++++++++++oo######@@@@  OOOOOO+++OOO",
"OOoo$$$$   +++++OOOOOOOO++++++++++++++o#####$$#@@@  +OOOOOO+++++",
"OOoo$$$$   ++++++OOOOOOOO+++++++++++++######$$##@@  +++OOOOO++++",
"+++o@@$$@@  ++++++OOOOOOOO++++++++++  ##@@##$$##@@  +++OOOOOOOOO",
"++++@@$$@@@   ++++OOOOOOOOO++++++++   ######$$##@@@  ++++OOOOOOO",
"OO++  $$##@@    ++OOOOOOOOOO++++++  @@######$$##@@@  ++++++OOOOO",
"OO++  $$##@@    ++OOOOOOOOOO++++++  @@######$$##@@@@  ++++++OOOO"
};
