/* XPM */
static char *_cc748d1b11a45369bac5b91e4c90f0eqFJsiJKNQLbDyfav[] = {
/* columns rows colors chars-per-pixel */
"64 64 7 1 ",
"  c #1B1B19",
". c #301B13",
"X c #33211A",
"o c #372219",
"O c #242321",
"+ c #50342C",
"@ c #453B39",
/* pixels */
"OOOOOOOOOOOOOOooOOOOOOOOOOOOOOOOOOOOOOOOOOOOOOOOOOOOOOOOOOOOOOoo",
"OOOOOOOOOOOOOOooOOOOOOOOOOOOOOOOOOOOOOOOOOOOOOOOOOOOOOOOOOOOOOoo",
"@OOOOOOOOOOOOOOOOOOOOOOOOOOOOOOOOOOOOOOOOOOOOOOOOOOOOOOOOOOOOOOO",
"@@@OOOOOOOOOOOOO@@@OOOOOOOOOOOOO@@OOOOOOOOOOooO@@@OOOOOOOOOOOOOO",
" @@OOOOOOOOOOOO@@@@OOOOOOOOOOOO@@@@OOOOOOOOOOO@@@@@OOOOOOOoooo@@",
"   @@OOOOOOOOO@@   @OOOOOOOOOO@@  @@OOOOOOOOOO@@  @@OOOOOOoooo@@",
"O  @@OOOOOOOOOOO    +OOOOOOOOOOO   @@OOOOOOOOOOO   @@OOOOOOOOOOO",
"OOO @@OOOOOOOOOOOO  ++OOOOOOOOOOOO @@@OOOOOOOOOOOO @@@OOOOOOOOOO",
"OOOOooOOOOOOOOOOOOOOOOOOOOOOOOOOOOOOOOOOOOOOOOOOOOOOOOOOOOOOOOOO",
"OOOOooOOOOOOOOOOOOOOOOOOOOOOOOOOooOOOOOOOOOOOOOOOOOOOOOOOOOOOOOO",
"OOO@OOOOOoOOOOOOOOOOOOOOOOOOOOOOooOOOOOOOOOOOOOOOO@OOOOOooOOOOOO",
"OO@@@OOOooOOOOOOOO@@@OOOOOOOOOOOo@@@OOOOOOOOooOOO@@@OOOOoooOOOOO",
"@@@ @@OOOOOOOOOO++@@@@OOOOOOOOOO@@@@@OOOOOOOOOOOO@ @@OOOooooOOOO",
"@@  @@OOOOOOOOOo++  @@OOOOOOOOOO@   @@OOOOOOOOOO@   @@OOOoooOOOO",
"    OOOOOOOOOO@@   OOOOOOOOOOO@@@  OOOOOOOooOO@@@  OOOOOOOOOOOO@",
"  OOOOOOOOOOOO@@ OOOOOOOOOOOOO@@ OOOOOOOOOooOO@@ OOOOOOOOOOOOO@@",
"OOOOOOOOOOOOOOooOOOOOOOOOOOOOOOOOOOOOOOOOOOOOOOOOOOOOOOOOOOOOOoo",
"OOOOOOOOOOOOOOooOOOOOOOOOOOOOOOOOOOOOOOOOOOOOOOOOOOOOOOOOOOOOOoo",
"@OOOOOOOOOOOOooO@@OOooOOOOOOOOOo@OOOOOOOOOOOOOOO++OOoOOOOOOOOOOO",
"@@@OOOOOOOOOOoOO@@@OooOOOOOOOOo@@@@OOOOOOOOOOOOO++OOoOOOOOOOOOOO",
" @@@OOOOOOOOOOO+ @@OOOOOOOOOOO@@  @OOOOOOOOOOO@@  OOOOOOOOOOOO@@",
"  @@@OOOOOOOOO++   @OOOOOOOOOOO@   @OOOOOOOOOO@@  @@OOOOOOOOOO@@",
"OO.@@@OOOOOoOOooO   ++OOOOOOOOOOo   +OOOOOooOOOOoo@@@OOOoOOOOOOO",
"OO..@@OOOOOoOOooOOO ++OOOOOOOOOOOo  ++OOOOooOOOOoo.@@OOooOOOOOOO",
"OOooOOOOOOOOOOOOOOOOOOOOOOOOOOOOOOOOooOOOOOOOOOOooOOOOoooOOOOOOO",
"OOooOOOOOOOOOOOOOOOOOOOOOOOOOOOOOOOOooOOOOOOOOOOooOOOOooOOOOOOOO",
"OO@@OOOOOoOOOOOOOO@@OOOOOOOOOOOOOo@@ooOOOOooOOOOOO+OOOOOOOOOOOOO",
"OO@@OOOOooOOOOOOO@@@@OOOOOOOOOOoo@@@@ooOOOooOOOOOO++OOOOOOOOOOOO",
"@@@@++OOooOOOOOOO@  @@OOOOOOOOOoo@  @oooOOooOOOOO@  @OOOOOOOOOOO",
"@@  ++OOooOOOOO@@   @@OOOOOOOOo@@   @@ooOOooOOO@@   @OOOOOOOOOOO",
"    OOOOooOOOO@@@  oOOOOOOOOOO@@@  OOOOOOOOOOO@@@  OOOoOOOOOOO@@",
"  OOOOOOOoOOOO@@  oOOOOOOOOOOO@@ OOOOOOOOOOOOO@@ OOOOoooOOOOOO@@",
"OOOOOOOOOOOOOOOOOOOOOOOOooOOooooOOOOOOooooOOOOOOOOOOooOooOOOoOOO",
"OOOOOOOOOOOOOOOOOOOOOOOOooOOoooOOOOOOOooooOOOOOOOOOOoOOOoOOOoOOO",
"@@OOOOOOOOOOOoOO++OOooOOOOOOOOOO@@OOOOOOOOOOOOOO@@OOOOOOOOOOOOOO",
"@@OOOOOOOOOOOoOO++OOooOOOOOOOOO@@@OOOOOOOOOOOOO@@@OOOOOOOOOOOOOO",
"..++OOOOOOOOOO@@  @OOOOOOOOOOO@@@ +OOOOOoooOOO@@  @OOOOOOOOOOO@@",
"..++OOOOOOOOOO@@   @OOOOOOOOOO@@   +OOOOooooOO@@   OOOOOOOOOOO@@",
"OOO @@OOOOOOOOOOO   ++OOooOOooOOo   @@OOOoooOOOOO   +OOOOOOOOOOO",
"OOOO@@OOOOOOOOOOOOO ++OOooOOooOOOo  @@OOOOooOOOOOOO +OOOOOOOOOOO",
"OOOOOOOOOOOOOOOOOOOOOOOOOOOOOOOOOOOOOOOOOOOOOOOOOOOOOOooXOOOOOOO",
"OOOOOOOOOOOOOOOOOOOOOOOOOOOOOOOOOOOOOOOOOOOOOOOOOOOOOOooXOOOOOOO",
"OO@@@OOOOOOOOOOOOO@@OOOOOOOOOOOOOO++OOOOOOOOOOOOOO@@OOOOOOOOOOOO",
"O@@@@@OOOOOOOOOOO@@@OOOOOOOOOOOOO+++OOOOOOOOOOOOO@@@@OOOOOOOOOOO",
"@@  @@OOOOOOOOOOO@@ ++OOOOOOOOOOO++ @@OOOOOOOOOOO@ @@OOOOOOOoOOO",
"@   @@OOOOOOOOO@@   ++OOOOOOOOOO+   @@OOOOOOOOO@@   @OOOOOOOoOOO",
"   OOOOOOOOOOO@@@  OOOOOooOOOO@@   OOOOOOOOOOO@@@ OOOOOOOOOOOO@@",
" OOOOOOOOOOOOO@@ OOOOOOOoooOOO@@ OOOOOOOOOOOOO@@ OOOOOOOOOOOOO@@",
"OOOOOOOOOOOooOOOOOoooOOOOoooOOOOOOOOOOOOOOOOOOOOOOOOOOOOOOOOOOOO",
"OOOOOOOOOOOoooOOOOooooOOOOooOOOOOOOOOOOOOOOOOOOOOOOOOOOOOOOOOOOO",
"@@OOoooOOOOOooOO@@@OooOOOOooOOOO@@OOOOOOOOOOOOOO++OOOOOOOOOOOOoo",
"@@@OOoooOOOOOoO@@@@OOOOOOOOOOOO@@@@OOOOOOOOOOOOO++OOOOOOOOOOOOoo",
"  @@OOooOOOOOO@@   @OOOOOOOOOO@@  @@OOOOOOOOOO@@  @OOOOOooOOOO@@",
"   @@@OoOOOOOOO@   @@@OOOOOOOOO@   @@OOOOOOOOOO@   @@OOOooOOOOO@",
"OO  @@OOOOOOOOOOOO  @@OOOOOOOOOOOO @@@OOOOooOOOOOO @@@OOooOOOOOO",
"OOOO@@OOOOOOOOOOOOOO@OOOOOOOOOOOOOOO@OOOOOOOOOOOOOO @OOOoOOOOOOO",
"OOOOOOOOOOOOOOOOOOOOOOooOOOOOOOOOOOOOOOOOOOOOOOOOOOOOOOOOOOOOOOO",
"OOOOOOOOOOOOOOOOOOOOOOooOOOOOOOOOOOOOOOOOOOOOOOOOOOOOOOOOOOOOOOO",
"OO++OOooOOOOOOooOO@@@OooOOOOOOOOO@@@OOOOOOOOooOOO@@@OOOOOOOOOOoo",
"OO++OOOoOOOOOOoo@@@@@OOOOOOOOOOOO@@@@OOOOOOOOOOOO@@@@OOOOOOOOOoo",
"@@  @@OOOOOOOOoo@@  @@OOOOOOOOOO@@  @@OOOOOOOOOO@   @@OOOOOOOOOO",
"@   @@OOOOOOOO@@@   @@OOOOOOOOO@@@  @OOOOOOOOOO@@   @OOOOOOOOOOO",
"   OOOOOOOOOOO@@@  OooOOooOOOOO@..OOOOOOOOOOOO@@  OOOOOOOOOOoo@@",
"  OOOOOOOOOOOO@@  OOooOOooOOOO@@..OOOOOOOOOOOO@@  OOOOOOOOOOoo@@"
};
