/* XPM */
static char *ff8c0d389e444862982dbe97a186a84a9PSC7ss2O7xPNSkK[] = {
/* columns rows colors chars-per-pixel */
"64 64 4 1 ",
"  c #343330",
". c #4D4B46",
"X c #5E5C55",
"o c #7C7A70",
/* pixels */
"XX  XXXXXXXXXXoo    ..XXXXXXXXoo  XXXXXXXXXXXXXXXXXX  ooXXXXXXXX",
"XX  XXXXXXXXXXoo     .XXXXXXXXXo  XXXXXXXXXXXXXXXXXX  oXXXXXXXXX",
"XX  XXXXXXXXXXoo      XXXXXXXXXoooXXXXXXXXXXXXXXXXX.  XXXXXXXXXX",
"XX  XXXXXXXXXXXoo     XXXXXX..XXoo.XXXXXXXXXXXXXXX.   XXXXXXXXXX",
"XX  XXXXXXXXXXXoo     XXXXX...XXXX  XXXXXXXXXXXXX..   XXXXXXXXXX",
"XX  XXXXXXXXXXXXoo     .XXX.  XXXX  XXXXXXXXXXXX..    ..XXXXXXXX",
"..oo.XXXXXXXXXXXXX     ....   XXXX  XXXXXXXXXX...   o  ..XXXXXXX",
"..ooo..XXXXXXXXXXX      ...   XXXX  ..XXXXXX....   ooo ...XXXXXX",
"oooXo..XXXXXXXXXXX            ....   .....oo       oXooo........",
"ooXXXo...XXXXXXX..          ooo...    ...ooo      oXXXoooo......",
"XXXXXX ..XXXXXX..          ooooooo      oooo     ooXXXXXoooooo  ",
"XXXXXX   ..XXX..  ooo     ooXXXooooo    ooXX    ooXXXXXXXXoooo  ",
"XXXXXX   ......  oooo    ooXXXXXXXooo   XXXX    XXXXXXXXXXXXXX  ",
"XXXXX.     ...   oXXXo   ooXXXXXXXXXoo  XXXX    XXXXXXXXXXXXXX  ",
".XXX   o        XXXXXX  ooXXXXXXXXXXXoooXXXX    ..XXXXXXXXXX..  ",
"...X  ooo       XXXXXX  oXXXXXXXXXXXXXooXXXX    ..XXXXXXXXXX..  ",
" ...oooXooo     XXXXXX  XXXXXXXXXXXXXXoo....    XXXXXXXXXXXXXX  ",
"   .ooXXXoooo   XXXXXX  XXXXXXXXXXXXXXXo...     XXXXXXXXXXXXXX  ",
"    XXXXXXXooo  .XXXX.  XXXXXXXXXXXXXXXX        XXXXXXXXXXXXXX  ",
"    XXXXXXXXXoo  .XX.   XXXXXXXXXXXXXXXX        XXXXXXXXXXXXXX  ",
"    XXXXXXXXXXo  ....   .XXXXXXXXXXXXXX.        XXXXXXXXXXXXX   ",
"    XXXXXXXXXXXo  ..     .XXXXXXXXXXX..         XXXXXXXXXXX..   ",
"o   XXXXXXXXXXXX      oo  XXXXXXXXXXX..  oo     .XXXXXXXXX..   o",
"oo  XXXXXXXXXXXX      oo  XXXXXXXXX..  oooooo    .XXXXXXX..  ooo",
"XX  XXXXXXXXXXX.o     XX  .XXXXXXXX..  ooXXoo    ..XXXXX..  oooX",
"XX  XXXXXXXXXX..ooo   XX   ..XXXX..  ooXXXXXXoo   ..XXX..   oXXX",
"..  XXXXXXXXX.. Xoo   ..   ........  ooXXXXXXoooo  .....    XXXX",
"..  XXXXXXXX..  XXXo  ..     ....   oXXXXXXXXXXooo ....     XXXX",
"   XXXXXXXX..  oXXXX  oo            XXXXXXXXXXXXXooooo      ....",
"   XXXXXXXX.. oXXXXX oooo           XXXXXXXXXXXXXXoooo      ....",
"  XXXXXXXXXX  XXXXX.ooXXo      oo   XXXXXXXXXXXXXXXXooo    ooooo",
"  XXXXXXXXXX  XXX..ooXXXXoo   oooo  XXXXXXXXXXXXXXXXXXo    ooooo",
"ooo.XXXXXXXX  .....ooXXXXoo   XXXX  .XXXXXXXXXXXXXXXXXXX  ooXXXX",
"ooo...XXXXXX   ..ooXXXXXXXoo  XXXX   ..XXXXXXXXXXXXXXXXX  XXXXXX",
"XXoo........    oooXXXXXXXoo  .XXX   ..XXXXXXXXXXXXX...   XXXXXX",
"XXXooo.....    ooXXXXXXXXXXo   ..X    ...XXXXXXXXXXX..    XXXXXX",
"XXXXooo        ooXXXXXXXXXXX   ...   oo..XXXXXXXX.oo      XXXXXX",
"XXXXXoo       oXXXXXXXXXXXXX    .. oooooo..XXXXX.ooo      XXXXXX",
"XXXXXXoo      XXXXXXXXXXXXXX       ooXXoo.....ooooXX ooo  .XXXXX",
"XXXXXXXX      XXXXXXXXXXXXXX     ooXXXXXXoo...oooXXXoooo   XXXXX",
"XXXXXXXX      ..XXXXXXXXXXXX     ooXXXXXXooo  XXXX.ooXXXo   XXXX",
"XXXXXXXX      ..XXXXXXXXXXXX   ooXXXXXXXXXoo  XXX..ooXXXX   XXXX",
"XXXXXXX.      XXXXXXXXXXXXX.   ooXXXXXXXXXoo  XXX.ooXXXXXX  .XXX",
"XXXXX...      XXXXXXXXXXX..   ooXXXXXXXXXXXo  XX.ooXXXXXXX  ...X",
".......oo     .XXXXXX......   ooXXXXXXXXXXXX  XXooXXXXXX..   ...",
".....ooooo     ..XX......     oXXXXXXXXXXXXX  XXooXXXXXX..     .",
"oo  ooXXXooooo ......         XXXXXXXXXXXXXX  ..ooXXXXXXXXo     ",
"oo  oXXXXXooooo  ..           XXXXXXXXXXXXXX   .oXXXXXXXXXX     ",
"XX  XXXXXXXXXXo               XXXXXXXXXXXXXX    XXXXXXXXXXXX  oo",
"XX  XXXXXXXXXXXo              XXXXXXXXXXXXXX    XXXXXXXXXXXX  oo",
"XX  XXXXXXXXXXXX    oooo      XXXXXXXXXXXXXX  oXXXXXXXXXXX..  oo",
"XX  XXXXXXXXXXXX   oooooo     XXXXXXXXXXXXXX  XXXXXXXXXXXX..  oo",
"XX  XXXXXXXXXXXX   oXXXXoo    XXXXXXXXXXXX.   XXXXXXXXXXXXXX  XX",
"XX  XXXXXXXXXXXX  XXXXXXXoo   XXXXXXXXXXX..   XXXXXXXXXXXXXX  XX",
"XX  XXXXXXXXXXXX  XXXXXXXXoo  XXXXXXXXXX..    .XXXXXXXXXXX.   XX",
"XX  XXXXXXXXXXXX  XXXXXXXXoo  XXXXXXXXX..       XXXXXXXXX..   XX",
"..   .XXXXXXXX..  XXXXXXXXXoo  .XXXXXX..        XXXXXXXX..  oo..",
".    ..XXXXXX..   XXXXXXXXXoo  ...XX....        XXXXXX...   ooo.",
"      ..XXX...    XXXXXXXXXXoo  ......oooooooooo........    Xooo",
"      ..XX...     XXXXXXXXXXXX    ..oooooooooooooo....      XXXo",
"oo    ooooooo     XXXXXXXXXXXX    ooooXXXXXXXXXXoo        oXXXXX",
"oo   oooooooo     XXXXXXXXXXXX    ooXXXXXXXXXXXXXoo      ooXXXXX",
"XX   ooXXXXXoo    ..XXXXXXXXXX    XXXXXXXXXXXXXXXoo     ooXXXXXX",
"XX  ooXXXXXXoo    ..XXXXXXXXXX    XXXXXXXXXXXXXXXXoo    ooXXXXXX"
};
