/* XPM */
static char *b3c71da70b5e4affbe5b40b8ba071e22jnaMGA43pGvk7R3f[] = {
/* columns rows colors chars-per-pixel */
"64 64 7 1 ",
"  c black",
". c #0B1520",
"X c #10262F",
"o c #0E2F31",
"O c #153B3F",
"+ c #19464B",
"@ c #1D4E56",
/* pixels */
"XXXXXX      ..................  @@@@@@@@@@@@@@  ..          @@  ",
"XXXXXX      ..................  @@@@@@@@@@@@@@  ..          @@  ",
"       @   .......  .........  @@@@@@@@@@@@@@@@ ........    @@@@",
"      @@   .....      .......  @@@@@OOOO@@@@@@@@ ........   @@@@",
"@@@@@@@@  .....   @@@  .....  @@@@@OOOOOOO@@@@@@@ ........  @@@@",
"@@@@@@@@  ....  @@@@@@  ....  @@@@OOOOOOOOOO@@@@@  .......  oo@@",
"@@@@@@@@  ...  @@@@@@@   ...  @@@OOOOOOOOOOOO@@@@@  .......  ooo",
"@@@@@@@@@ ...  @@@@@      ...  @OOOO  OOOOOOO@@@@@  .......  ooo",
"o@@@@@@@@     oooo    OO   ...  OOOOO  OOOOOOO@@@@  ........  oo",
"ooo@@@@@@@    oooo  OOOOOO  ..  OOOOOO  OOOOOO@@@@  ........  oo",
"ooo@@@@@oo    ooo  OOOOOOOO            OOOOOOO@@@@  ........  oo",
"oooo@@@oooo   ooo  OOOOOOOOO          OOOOOOOO@@@  .........  oo",
"ooooooooooo   oo  OOOOOOOOOOOOOOOOOOOOOOOOOOOO@@@  ..........   ",
"oooooooooooo  oo  OOOOOOOOOOOOOOOOOOOOOOOOOOO@@@  ............  ",
"   ooooooooooooo  OOOOOOOOOOOOOOOOOOOOOOOOOOO@@  ............   ",
"     ooooooooooo   OOOOOOOOOOOOOOOOOOOOOOOO@@  ............     ",
"@@@   oooooo@@@@@  OOOOOOOOOOOOOOOOOOOOOOOO@@  ...........   @@@",
"@@@@@  ooo@@@@@@@@@  OOOOOOOOOOOOOOOOOOOO@@  .............  @@@@",
"@@@@@@   @@@@@@@@@@@ OOOOOOOOOOOOOOOOOO@@@@ ..............  @@@@",
"@@@@@@   @@@@@@@@@@@   OOOOOOOOOOOOOO@@@@   ..............  @@@@",
"OOOOOOO   @@@@@         @@@@@@@@@@@@@@@@@           ......  @@@@",
"OOOOOOOOO  @@@           @@@@@@@@@@@@@@               ....  @@@@",
"@OOOOOOOOO     XXXX        @@@@@@@@@@      XXXXXXXXX   ....  @@@",
"@@@OOOOOOO    XXXXXXX        @@@@@@      XXXXXXXXXXXXX  ....  @@",
"@@@@OOOOOO   XXXXXXXXXX   ..        ..   XX@@@@@@@@@XXX  ....   ",
"@@@@OOOOOO   XXXXXXXXXXXX ...      ... XX@@@@@@@@@@@@@XX  ....  ",
"   OOOOOOO  XXXX@@XXXXXXX  ..........  XX@@@@@@o  @@@@@XX  .....",
"   OOOOOOO  XXXX@@XXXXXXXXX ........  X@@@@@@oo o   @@@@X  .....",
"    OOOOOOO  XXX@@XXXXXXXXX  ......  o@@@@@@@o   o   @@@@@  ....",
"     OOOOOO  XX@@@@XXXXXXXXX  ....  o@@@@@@oo   ooo  @@@@@  ....",
"@@@     OOOO  @@@@@XXXXXXXXX  ....  @@@@@@@o  oooooo @@@@@  ... ",
"@@@@     OOOO  @@@@@@XXXXXXXX  ...  @@@@@@oo  oooooo @@@@@  ..  ",
"@@@OOOOO  OOOO @@@@@@XXXXXXXX  ...  @@@@@@ooo o @ooo@@@@@     @@",
"@@@OOOOO  OOOOO  @@@@@@XXXXXXX  ..  @@@@@ooooo   @o@@@@@@     @@",
"@@@      OOOOOO  @@@@@@XXXXXXX  ..  @@@@@ooooo   @@@@@@@ ..   @@",
"@@@@    OOOOOOOO   @@@@@XXXXXXX ..  @@@@oooooo     @@@  ....  @@",
"@@@@@@@OOOOOOOOO   @@@@@XXXXXXX     @@@@oooo@@@         ....  @@",
"@@@@@@@OOOOOOOO     @@@@@XXXXXXX    @@@ooooo@@@@@       ....   @",
"@@@@@@@@OOOOOOO ..  @@@@@XXXXXXX    @@@oooooo@@@@   OOO  ....   ",
"@@@@@@@@OOOOO   ..   @@@@@XXXXXXX    @oooooooo@@@@  OOOO  ..... ",
"  @@@@@              @@@@@XXXXXXX     oooooooo@@@@  OOOOO  .....",
"    @                 @@@@XXXXXXXX    ooooooo@@@@@  OOOOOO  ....",
"..     XXXXXXXX   @@  @@    XXXXXX   @ooooooo@@@@@ OOOOOOOO  ...",
"..   XXXXXXXXXXXX @@   @    XXXXXX  @@@ooooo@@@@@  OOOOOOOO  ...",
"   ++XXXXXXXXXXXX  @@@   @XXXXXXXX  @@@@oooo@@@@@ OOOOOOOOOO  ..",
" +++++XXXXXXXXXXXXX @@  @@XXXXXXXX  @@@@oooo@@@@  OOOOOOOOOO   .",
"++++++++++++XXXXXXX  @ @@@XXXXXXXX  @@oooooo@@@   OOOOOOOOO     ",
"++++++++++++XXXXXXXX  @@@@XXXXXXXX  @@oooooo@@@ @ OOOOOOOOO     ",
"++++++++++++XXXXXXXX  @@@@XXXXXXXX  @@@ooooo@@  @@ OOOOOOO ..   ",
"+++++++++++XXXXXXXXX  @@@@@XXXXXXX  @@@@@oo@@   @@   OOO  ....  ",
"++++++   +XXXXXXXXXX  XX@@@@XXXXX   @@@@@@@   @@@@@       ...   ",
"+++++++   +XXXXXXXXX  XXXX@XXXXXX     @@@@   @@@@@@@@     .. .. ",
"  ++++++  ++XXXXXXXX  XXXXXXXXXX ...        @@@@@@@@@        ...",
"    ++++  ++XXXXXXXX  XXXXXXXXX  .....     @@@@@@@@@@@@       ..",
"         ++++XXXXXX+   XXXXXXX  ........  @@@@OOOO@@@@@@@@@@@   ",
"        +++++XXXXX      XXXX   ..........  @OOOOOOO@@@@@@@@@@@  ",
"++++++++++++++XXXX            ............  OOOOOOOOOOO@@@@@@   ",
"++++++++++++++XXX           ...............  OOOOOOOOOOOO@@@    ",
"++++++++++++++XX  ..........................  OOOOOOOOOOOOOO  XX",
"+++++++++++++XX  ............................  OOOOOOOOOOOOO  XX",
"XX+++++++XXXXX  ..................         ...  OOOOOOOOOOOO  XX",
"XXXX+++XXXXXX  ..................           ...  OOOOOOOOOOO  XX",
"XXXXXXXXXXXXX  .................  @@@@@@@@@  ... OOOOOOOOOOO  XX",
"XXXXXXXXXXXX  ..................  @@@@@@@@@@  ..  OOOOOOOOOO  XX"
};
